<?xml version="1.0" encoding="UTF-8"?>
<svg xmlns="http://www.w3.org/2000/svg" xmlns:xlink="http://www.w3.org/1999/xlink" viewBox="0 0 48 48" width="48px" height="48px">
<g id="surface242058651">
<path style=" stroke:none;fill-rule:nonzero;fill:rgb(0%,0%,0%);fill-opacity:1;" d="M 24 24.238281 C 23.867188 24.238281 23.761719 24.132812 23.761719 24 C 23.761719 23.867188 23.867188 23.761719 24 23.761719 C 24.132812 23.761719 24.238281 23.867188 24.238281 24 C 24.238281 24.132812 24.132812 24.238281 24 24.238281 Z M 24 24.238281 "/>
<path style=" stroke:none;fill-rule:nonzero;fill:rgb(98.431373%,75.294119%,17.647059%);fill-opacity:1;" d="M 39.898438 23.308594 C 39.898438 24.898438 39.898438 28.871094 37.511719 28.871094 C 36.320312 28.871094 35.527344 28.472656 35.128906 28.078125 L 35.128906 40 L 12.871094 40 L 12.871094 28.078125 C 12.472656 28.472656 11.679688 28.871094 10.488281 28.871094 C 8.136719 28.871094 8.101562 24.898438 8.101562 23.308594 C 8.101562 16.949219 13.667969 9 24 9 C 34.332031 9 39.898438 16.949219 39.898438 23.308594 Z M 39.898438 23.308594 "/>
<path style=" stroke:none;fill-rule:nonzero;fill:rgb(50.980395%,8.627451%,8.627451%);fill-opacity:1;" d="M 28.769531 24.101562 C 28.769531 24.101562 28.195312 28.125 25.582031 29.324219 C 25.566406 29.332031 25.550781 29.339844 25.535156 29.347656 C 25.511719 29.355469 25.488281 29.371094 25.460938 29.378906 C 25.542969 29.222656 25.589844 29.046875 25.589844 28.871094 C 25.589844 27.996094 24.523438 27.28125 23.207031 27.28125 C 22.21875 27.28125 21.375 27.679688 21.019531 28.242188 C 20.933594 28.15625 20.859375 28.070312 20.789062 27.972656 C 19.558594 26.335938 19.230469 24.101562 19.230469 24.101562 C 19.230469 24.101562 21.367188 25.691406 24 25.691406 C 26.632812 25.691406 28.769531 24.101562 28.769531 24.101562 Z M 28.769531 24.101562 "/>
<path style=" stroke:none;fill-rule:nonzero;fill:rgb(89.803922%,45.09804%,45.09804%);fill-opacity:1;" d="M 25.589844 28.871094 C 25.589844 29.046875 25.542969 29.222656 25.460938 29.378906 C 25.023438 29.554688 24.539062 29.667969 24 29.667969 C 22.769531 29.667969 21.839844 29.132812 21.144531 28.394531 C 21.097656 28.347656 21.058594 28.300781 21.019531 28.242188 C 21.375 27.679688 22.21875 27.28125 23.207031 27.28125 C 24.523438 27.28125 25.589844 27.996094 25.589844 28.871094 Z M 25.589844 28.871094 "/>
<path style=" stroke:none;fill-rule:nonzero;fill:rgb(97.647059%,65.882355%,14.509805%);fill-opacity:1;" d="M 37.511719 28.871094 L 37.511719 40 L 35.128906 40 L 35.128906 28.078125 C 35.527344 28.472656 36.320312 28.871094 37.511719 28.871094 Z M 12.871094 28.078125 L 12.871094 40 L 10.488281 40 L 10.488281 28.871094 C 11.679688 28.871094 12.472656 28.472656 12.871094 28.078125 Z M 12.871094 28.078125 "/>
<path style=" stroke:none;fill-rule:nonzero;fill:rgb(100%,62.7451%,0%);fill-opacity:1;" d="M 24 17.75 C 14.890625 17.972656 15.695312 25.757812 16.527344 28.078125 C 17.03125 29.484375 18.085938 30.460938 19.019531 30.460938 C 21.507812 30.460938 21.941406 26.421875 22.339844 24.101562 C 22.496094 23.125 23.261719 22.734375 24 22.640625 C 24.738281 22.734375 25.503906 23.125 25.660156 24.101562 C 26.058594 26.421875 26.492188 30.460938 28.980469 30.460938 C 29.914062 30.460938 30.96875 29.484375 31.472656 28.078125 C 32.304688 25.757812 33.109375 17.972656 24 17.75 Z M 24 17.75 "/>
<path style=" stroke:none;fill-rule:nonzero;fill:rgb(12.941177%,12.941177%,12.941177%);fill-opacity:1;" d="M 18.070312 19.769531 C 17.273438 20.519531 16.765625 21.414062 16.457031 22.339844 C 14.84375 21.828125 13.667969 20.320312 13.667969 18.539062 C 13.667969 16.71875 14.898438 15.175781 16.566406 14.714844 C 16.234375 15.246094 16.050781 15.882812 16.050781 16.550781 C 16.050781 17.972656 16.871094 19.199219 18.070312 19.769531 Z M 34.324219 18.738281 C 34.246094 20.4375 33.101562 21.851562 31.542969 22.339844 C 30.90625 20.445312 29.445312 18.691406 26.425781 18.03125 C 26.597656 16.574219 27.578125 15.367188 28.886719 14.84375 C 28.808594 15.136719 28.769531 15.4375 28.769531 15.757812 C 28.769531 17.734375 30.367188 19.332031 32.347656 19.332031 C 33.078125 19.332031 33.761719 19.117188 34.324219 18.738281 Z M 24 20.921875 C 22.242188 20.921875 20.820312 21.636719 20.820312 22.511719 C 20.820312 23.390625 22.242188 24.101562 24 24.101562 C 25.757812 24.101562 27.179688 23.390625 27.179688 22.511719 C 27.179688 21.636719 25.757812 20.921875 24 20.921875 Z M 24 20.921875 "/>
<path style=" stroke:none;fill-rule:nonzero;fill:rgb(98.039216%,98.039216%,98.039216%);fill-opacity:1;" d="M 21.574219 18.03125 C 20.035156 18.363281 18.898438 18.992188 18.070312 19.769531 C 16.871094 19.199219 16.050781 17.972656 16.050781 16.550781 C 16.050781 15.882812 16.234375 15.246094 16.566406 14.714844 C 16.910156 14.613281 17.265625 14.5625 17.640625 14.5625 C 19.660156 14.5625 21.328125 16.074219 21.574219 18.03125 Z M 34.332031 18.539062 C 34.332031 18.601562 34.332031 18.671875 34.324219 18.738281 C 33.761719 19.117188 33.078125 19.332031 32.347656 19.332031 C 30.367188 19.332031 28.769531 17.734375 28.769531 15.757812 C 28.769531 15.4375 28.808594 15.136719 28.886719 14.84375 C 29.339844 14.667969 29.84375 14.5625 30.359375 14.5625 C 32.554688 14.5625 34.332031 16.34375 34.332031 18.539062 Z M 34.332031 18.539062 "/>
</g>
</svg>
